<?xml version="1.0" standalone="no"?>
<!DOCTYPE svg PUBLIC "-//W3C//DTD SVG 20010904//EN"
 "http://www.w3.org/TR/2001/REC-SVG-20010904/DTD/svg10.dtd">
<svg version="1.0" xmlns="http://www.w3.org/2000/svg"
 width="1010.000000pt" height="263.000000pt" viewBox="0 0 1010.000000 263.000000"
 preserveAspectRatio="xMidYMid meet">
<metadata>
Created by potrace 1.16, written by Peter Selinger 2001-2019
</metadata>
<g transform="translate(0.000000,263.000000) scale(0.100000,-0.100000)"
fill="#000000" stroke="none">
<path d="M2180 2624 c-245 -46 -471 -230 -564 -459 -58 -143 -71 -325 -36
-475 120 -497 675 -735 1129 -484 42 24 99 70 157 128 76 77 99 107 138 186
65 135 81 200 81 350 0 150 -16 215 -81 350 -40 80 -61 108 -138 185 -102 102
-183 153 -301 192 -68 22 -100 27 -220 29 -77 1 -151 0 -165 -2z m365 -149
c133 -39 219 -88 300 -169 149 -150 206 -342 171 -574 -15 -96 -63 -264 -87
-301 -9 -13 -9 -13 -4 4 28 84 21 194 -15 265 -61 119 -211 185 -526 230 -352
50 -521 115 -566 217 -23 52 -19 84 20 157 49 90 156 162 286 192 99 23 309
12 421 -21z"/>
<path d="M3447 2500 c-75 -19 -135 -66 -156 -123 -15 -40 -14 -121 3 -161 15
-36 62 -75 111 -94 17 -7 88 -26 159 -42 71 -17 139 -36 150 -42 70 -36 105
-107 86 -177 -13 -48 -74 -106 -127 -120 -48 -14 -167 -14 -214 -1 -87 24
-145 94 -156 190 -5 45 -9 51 -27 48 -18 -3 -21 -9 -18 -43 8 -113 54 -186
144 -226 45 -20 70 -23 158 -24 123 0 166 12 223 64 50 45 67 85 67 157 0 43
-6 68 -25 100 -32 55 -87 81 -260 123 -71 18 -148 43 -170 56 -60 34 -83 89
-66 152 22 80 102 123 228 123 113 0 177 -34 214 -115 10 -22 19 -52 19 -67 0
-23 4 -28 26 -28 24 0 25 1 19 48 -4 26 -19 70 -35 97 -22 40 -39 56 -84 79
-49 25 -71 30 -144 33 -48 1 -104 -2 -125 -7z"/>
<path d="M3800 2470 c0 -19 7 -20 140 -20 l140 0 0 -375 c0 -368 0 -375 20
-375 20 0 20 7 20 375 l0 375 140 0 c133 0 140 1 140 20 0 20 -7 20 -300 20
-293 0 -300 0 -300 -20z"/>
<path d="M4410 2095 l0 -395 270 0 c263 0 270 0 270 20 0 19 -7 20 -245 20
l-245 0 0 175 0 175 230 0 c223 0 230 1 230 20 0 19 -7 20 -230 20 l-230 0 0
160 0 160 245 0 c238 0 245 1 245 20 0 20 -7 20 -270 20 l-270 0 0 -395z"/>
<path d="M4985 2453 c8 -21 77 -198 154 -393 125 -321 140 -355 162 -358 23
-3 31 16 172 385 81 214 147 392 147 396 0 4 -10 7 -22 7 -21 0 -36 -34 -158
-354 -74 -195 -137 -352 -140 -350 -3 3 -66 162 -141 352 -129 327 -138 347
-163 350 l-26 3 15 -38z"/>
<path d="M5650 2095 l0 -395 270 0 c263 0 270 0 270 20 0 19 -7 20 -250 20
l-250 0 0 175 0 175 235 0 c228 0 235 1 235 20 0 19 -7 20 -235 20 l-235 0 0
160 0 160 245 0 c238 0 245 1 245 20 0 19 -7 20 -265 20 l-265 0 0 -395z"/>
<path d="M6450 2095 l0 -395 25 0 25 0 0 195 0 195 255 0 255 0 0 -195 0 -195
25 0 25 0 0 395 0 395 -25 0 -25 0 0 -180 0 -180 -255 0 -255 0 0 180 0 180
-25 0 -25 0 0 -395z"/>
<path d="M7242 2113 c-83 -208 -154 -386 -158 -395 -5 -14 -1 -18 19 -18 22 0
30 12 75 123 l51 122 188 3 188 2 49 -125 c43 -110 52 -125 73 -125 12 0 23 3
23 8 0 4 -69 181 -152 394 -145 368 -154 388 -178 388 -24 0 -34 -20 -178
-377z m261 95 c42 -110 76 -203 74 -205 -3 -2 -76 -2 -164 -1 l-161 3 81 203
c44 111 83 202 86 202 3 0 41 -91 84 -202z"/>
<path d="M7770 2095 l0 -395 25 0 25 0 2 352 3 353 249 -353 c228 -322 252
-352 278 -352 l28 0 0 395 0 395 -25 0 -25 0 -2 -352 -3 -353 -249 353 c-227
321 -252 352 -278 352 l-28 0 0 -395z"/>
<path d="M4830 1335 l0 -175 30 0 30 0 0 85 c0 78 2 88 25 110 28 29 51 31 83
9 20 -14 22 -23 22 -110 l0 -94 30 0 30 0 0 105 c0 99 -2 107 -25 130 -19 20
-34 25 -75 25 -28 0 -60 -5 -71 -10 -18 -10 -19 -7 -19 45 0 54 0 55 -30 55
l-30 0 0 -175z"/>
<path d="M5658 1494 c-21 -11 -28 -22 -28 -44 0 -20 -5 -30 -15 -30 -8 0 -15
-9 -15 -20 0 -11 6 -20 14 -20 11 0 15 -22 18 -100 1 -54 8 -103 13 -109 15
-14 78 -23 94 -12 15 10 6 55 -10 45 -6 -3 -16 0 -24 6 -11 9 -15 34 -15 91 0
78 0 79 25 79 18 0 25 5 25 20 0 15 -7 20 -24 20 -22 0 -25 5 -28 44 l-3 44
-27 -14z"/>
<path d="M7720 1335 l0 -175 30 0 30 0 0 88 c0 48 4 92 8 98 13 21 54 36 78
30 33 -9 44 -42 44 -137 l0 -79 30 0 30 0 0 90 c0 151 -21 177 -135 168 l-55
-5 0 49 c0 47 -1 48 -30 48 l-30 0 0 -175z"/>
<path d="M4440 1240 l0 -180 30 0 c30 0 30 1 30 55 0 52 1 55 19 45 48 -25
130 1 161 52 37 60 21 155 -32 192 -26 18 -109 21 -139 6 -13 -7 -19 -7 -19 0
0 5 -11 10 -25 10 l-25 0 0 -180z m175 115 c54 -53 18 -155 -54 -155 -58 0
-89 76 -56 140 24 47 72 54 110 15z"/>
<path d="M5264 1401 c-17 -10 -36 -33 -44 -50 -17 -42 -8 -125 16 -152 24 -27
75 -49 113 -49 43 0 107 28 124 53 38 59 27 149 -24 191 -26 22 -41 26 -92 26
-43 0 -71 -6 -93 -19z m141 -46 c33 -32 35 -98 3 -132 -43 -46 -122 -21 -134
42 -17 90 72 150 131 90z"/>
<path d="M5900 1403 c-36 -25 -48 -43 -55 -84 -9 -54 10 -114 45 -139 68 -49
181 -32 220 32 38 63 18 163 -39 192 -41 22 -139 21 -171 -1z m133 -43 c34
-27 44 -78 23 -118 -17 -33 -34 -42 -75 -42 -69 0 -102 109 -47 157 33 28 65
29 99 3z"/>
<path d="M6292 1404 c-73 -51 -68 -190 8 -229 33 -17 102 -20 131 -5 29 16 25
-15 -6 -45 -29 -30 -77 -33 -104 -6 -10 10 -30 21 -45 25 -23 6 -26 3 -26 -18
0 -42 43 -66 117 -66 76 0 117 20 133 63 5 17 10 90 10 163 l0 134 -30 0 c-17
0 -30 -5 -30 -12 0 -9 -3 -9 -12 0 -18 18 -119 15 -146 -4z m133 -49 c43 -43
30 -126 -22 -146 -79 -30 -140 85 -78 146 13 14 36 25 50 25 14 0 37 -11 50
-25z"/>
<path d="M6650 1290 l0 -130 29 0 29 0 4 89 c5 105 16 126 64 118 33 -6 44 5
44 39 0 18 -80 20 -98 2 -9 -9 -12 -9 -12 0 0 7 -13 12 -30 12 l-30 0 0 -130z"/>
<path d="M6959 1405 c-14 -7 -30 -25 -36 -38 -11 -23 -9 -26 14 -32 19 -4 31
0 48 20 27 28 79 34 110 11 34 -24 12 -44 -58 -51 -36 -4 -79 -16 -96 -26 -26
-16 -31 -25 -31 -57 0 -26 7 -45 20 -57 27 -24 96 -30 148 -12 23 8 42 11 42
6 0 -5 16 -9 35 -9 33 0 34 1 25 26 -6 14 -10 63 -10 110 0 112 -11 124 -112
124 -43 -1 -84 -7 -99 -15z"/>
<path d="M7320 1239 l0 -179 30 0 c30 0 30 1 30 54 l0 54 34 -10 c45 -14 98
-3 129 26 29 27 51 96 42 129 -27 94 -48 107 -174 106 l-91 -1 0 -179z m177
119 c32 -30 32 -102 1 -135 -27 -29 -71 -30 -98 -3 -33 33 -30 105 6 138 32
28 61 28 91 0z"/>
<path d="M8094 1388 c7 -18 33 -77 57 -130 37 -85 41 -101 31 -123 -9 -20 -19
-25 -48 -25 -29 0 -35 -3 -30 -16 3 -9 6 -20 6 -25 0 -17 79 -10 98 9 18 18
152 311 152 332 0 5 -13 10 -29 10 -27 0 -31 -6 -67 -94 l-39 -93 -39 93 c-38
92 -39 94 -72 94 l-34 0 14 -32z"/>
</g>
</svg>
